# AST/ASF file generated using VICON BodyLanguage
# -----------------------------------------------
:version 1.10
:name VICON
:units
  mass 1.0
  length 0.45
  angle deg
:documentation
   .ast/.asf automatically generated from VICON data using
   VICON BodyBuilder and BodyLanguage model FoxedUp or BRILLIANT.MOD
:root
   order TX TY TZ RX RY RZ
   axis XYZ
   position 0 0 0  
   orientation 0 0 0 
:bonedata
  begin
     id 1 
     name lhipjoint
     direction 0.573633 -0.743009 0.344793 
     length 2.46257 
     axis 0 0 0  XYZ
  end
  begin
     id 2 
     name lfemur
     direction 0.34202 -0.939693 0  
     length 7.3842  
     axis 0 0 20  XYZ
    dof rx ry rz
    limits (-160.0 20.0)
           (-70.0 70.0)
           (-60.0 70.0)
  end
  begin
     id 3 
     name ltibia
     direction 0.34202 -0.939693 0   
     length 7.50407   
     axis 0 0 20   XYZ
    dof rx
    limits (-10.0 170.0)
  end
  begin
     id 4 
     name lfoot
     direction 0.110749 -0.304281 0.946123   
     length 1.95925   
     axis -90 7.62852e-016 20   XYZ
    dof rx rz
    limits (-45.0 90.0)
           (-70.0 20.0)
  end
  begin
     id 5 
     name ltoes
     direction 1.53554e-011 -4.21843e-011 1   
     length 0.978318   
     axis -90 7.62852e-016 20   XYZ
    dof rx
    limits (-90.0 20.0)
  end
  begin
     id 6 
     name rhipjoint
     direction -0.488109 -0.791693 0.367385   
     length 2.31113  
     axis 0 0 0  XYZ 
  end
  begin
     id 7 
     name rfemur
     direction -0.34202 -0.939693 0   
     length 7.40965   
     axis 0 0 -20   XYZ
    dof rx ry rz
    limits (-160.0 20.0)
           (-70.0 70.0)
           (-70.0 60.0)
  end
  begin
     id 8 
     name rtibia
     direction -0.34202 -0.939693 0   
     length 7.55548   
     axis 0 0 -20   XYZ
    dof rx
    limits (-10.0 170.0)
 end
 begin
     id 9 
     name rfoot
     direction -0.127594 -0.350561 0.927808   
     length 2.07199  
     axis -90 -7.62852e-016 -20   XYZ
    dof rx rz
    limits (-45.0 90.0)
           (-20.0 70.0)
  end
  begin
     id 10 
     name rtoes
     direction -1.53542e-011 -4.21909e-011 1   
     length 1.02667   
     axis -90 -7.62852e-016 -20   XYZ
    dof rx
    limits (-90.0 20.0)
  end
  begin
     id 11 
     name lowerback
     direction -0.0103342 0.997298 -0.0727278   
     length 2.02836   
     axis 0 0 0   XYZ
    dof rx ry rz
    limits (-20.0 45.0)
           (-30.0 30.0)
           (-30.0 30.0)
  end
  begin
     id 12 
     name upperback
     direction 0.0171146 0.999786 -0.011606   
     length 2.03179   
     axis 0 0 0   XYZ
    dof rx ry rz
    limits (-20.0 45.0)
           (-30.0 30.0)
           (-30.0 30.0)
  end
  begin
     id 13 
     name thorax
     direction 0.0216927 0.999513 0.0224343   
     length 2.03882   
     axis 0 0 0   XYZ
    dof rx ry rz
    limits (-20.0 45.0)
           (-30.0 30.0)
           (-30.0 30.0)
  end
  begin
     id 14 
     name lowerneck
     direction 0.000989287 0.993907 0.110221   
     length 1.75428   
     axis 0 0 0   XYZ
    dof rx ry rz
    limits (-20.0 45.0)
           (-30.0 30.0)
           (-30.0 30.0)
  end
  begin
     id 15 
     name upperneck
     direction -0.0172474 0.994813 -0.100253   
     length 1.77058   
     axis 0 0 0   XYZ
    dof rx ry rz
    limits (-20.0 45.0)
           (-30.0 30.0)
           (-30.0 30.0)
  end
  begin
     id 16
     name head
     direction -0.00486455 0.99894 -0.0457663  
     length 1.77427  
     axis 0 0 0   XYZ
    dof rx ry rz
    limits (-20.0 45.0)
           (-30.0 30.0)
           (-30.0 30.0)
  end
  begin
     id 17 
     name lclavicle
     direction 0.927314 0.333734 -0.169441  
     length 3.97584  
     axis 0 0 0   XYZ
    dof ry rz
    limits (-20.0 10.0)
           (0.0 20.0)
  end
  begin
     id 18 
     name lhumerus
     direction 1 -4.48965e-011 -3.25313e-028   
     length 4.76468   
     axis 180 -30 -90   XYZ
    dof rx ry rz
    limits (-60.0 90.0)
           (-90.0 90.0)
           (-90.0 90.0)
  end
  begin
     id 19
     name lradius
     direction 1 -4.48969e-011 -2.8465e-028   
     length 3.52712   
     axis -180 -30 -90   XYZ
    dof rx
    limits (-10.0 170.0)
  end
  begin
     id 20
     name lwrist
     direction 1 -4.4896e-011 -7.78665e-028   
     length 1.76356   
     axis 1.91374e-015 90 90   XYZ
    dof ry
    limits (-180.0 0.0)
 end
  begin
     id 21 
     name lhand
     direction 1 -4.48959e-011 -1.55733e-027   
     length 0.859564   
     axis 9.9371e-016 90 90   XYZ
    dof rx rz
    limits (-90.0 90.0)
           (-45.0 45.0)
  end
  begin
     id 22 
     name lfingers
     direction 1 -4.48965e-011 -3.11466e-027   
     length 0.693002   
     axis 1.98742e-015 90 90   XYZ
    dof rx
    limits (0.0 90.0)
  end
  begin
     id 23
     name lthumb
     direction 0.707107 -6.34948e-011 0.707107   
     length 0.995017   
     axis -90 45 2.85299e-015   XYZ
    dof rx rz
    limits (-45.0 45.0)
           (-45.0 45.0)
  end
  begin
     id 24 
     name rclavicle
     direction -0.899388 0.348209 -0.264294   
     length 3.68366  
     axis 0 0 0   XYZ 
    dof ry rz
    limits (-10.0 20.0)
           (-20.0 0.0)
  end
  begin
     id 25 
     name rhumerus
     direction -1 -4.48965e-011 -3.01536e-027  
     length 4.90577   
     axis 180 30 90   XYZ
    dof rx ry rz
    limits (-90.0 60.0)
           (-90.0 90.0)
           (-90.0 90.0)
  end
  begin
     id 26 
     name rradius
     direction -1 -4.48966e-011 3.93291e-027   
     length 3.42692   
     axis -180 30 90   XYZ
    dof rx
    limits (-10.0 170.0)
  end
  begin
     id 27 
     name rwrist
     direction -1 -4.48969e-011 -7.78665e-028   
     length 1.71346   
     axis 1.91374e-015 -90 -90   XYZ
    dof ry
    limits (-180.0 0.0)
  end
  begin
     id 28
     name rhand
     direction -1 -4.48967e-011 -1.55733e-027   
     length 0.740957   
     axis 9.9371e-016 -90 -90   XYZ
    dof rx rz
    limits (-90.0 90.0)
           (-45.0 45.0)
  end
  begin
     id 29
     name rfingers
     direction -1 -4.48949e-011 -3.11466e-027   
     length 0.597378   
     axis 1.98742e-015 -90 -90   XYZ
    dof rx
    limits (0.0 90.0)
  end
  begin
     id 30
     name rthumb
     direction -0.707107 -6.34931e-011 0.707107   
     length 0.857719   
     axis -90 -45 -2.85299e-015   XYZ
    dof rx rz
    limits (-45.0 45.0)
           (-45.0 45.0)
  end
:hierarchy
  begin
    root lhipjoint rhipjoint lowerback
    lhipjoint lfemur
    lfemur ltibia
    ltibia lfoot
    lfoot ltoes
    rhipjoint rfemur
    rfemur rtibia
    rtibia rfoot
    rfoot rtoes
    lowerback upperback
    upperback thorax
    thorax lowerneck lclavicle rclavicle
    lowerneck upperneck
    upperneck head
    lclavicle lhumerus
    lhumerus lradius
    lradius lwrist
    lwrist lhand lthumb
    lhand lfingers
    rclavicle rhumerus
    rhumerus rradius
    rradius rwrist
    rwrist rhand rthumb
    rhand rfingers
  end

#!OML:ASF E:\I on waltz\AllaLogoMonkeySwing\Project 1\Capture day 1\Session 1\Subject1.ASF
:FULLY-SPECIFIED
:DEGREES
69
root 0.17425 17.9556 -3.43593 2.42247 0.646734 -1.47584
lowerback 3.07511 -1.48595 -2.38098
upperback -0.935989 -2.03622 1.77866
thorax -2.5392 -0.964416 3.27167
lowerneck -9.88777 -6.97037 -7.43083
upperneck 19.021 -8.43444 0.668005
head 7.86169 -4.4911 0.598341
rclavicle 1.75676e-014 1.07344e-014
rhumerus -28.3114 -22.9092 -78.7849
rradius 18.124
rwrist 12.5194
rhand -5.54195 -35.5672
rfingers 7.12502
rthumb 20.2726 -64.5292
lclavicle 1.75676e-014 1.07344e-014
lhumerus -40.6052 27.1715 77.1968
lradius 34.0345
lwrist -5.70089
lhand -6.49288 -11.2683
lfingers 7.12502
lthumb 19.3585 17.7881
rfemur -1.56981 0.608001 19.9898
rtibia 14.9415
rfoot -13.8404 -8.92527
rtoes 12.9383
lfemur 2.39844 1.67968 -17.4381
ltibia 9.20958
lfoot -12.6839 3.61166
ltoes -29.1325
70
root 0.17395 17.9565 -3.43187 2.44235 0.61363 -1.4554
lowerback 3.08023 -1.52116 -2.42599
upperback -0.971982 -2.08584 1.752
thorax -2.57497 -0.987574 3.27276
lowerneck -9.75545 -7.08272 -7.57975
upperneck 18.9227 -8.60901 0.842894
head 7.82811 -4.56874 0.666067
rclavicle -2.64943e-015 -3.76697e-014
rhumerus -28.4212 -23.106 -78.6747
rradius 18.0437
rwrist 12.724
rhand -5.48467 -35.6711
rfingers 7.12502
rthumb 20.3277 -64.6273
lclavicle -2.64943e-015 -3.76697e-014
lhumerus -40.6682 27.2691 77.0969
lradius 34.0972
lwrist -5.74151
lhand -6.65772 -11.7317
lfingers 7.12502
lthumb 19.2 17.3405
rfemur -1.58572 0.657696 19.9787
rtibia 14.9595
rfoot -13.8527 -8.95328
rtoes 12.9335
lfemur 2.40846 1.69914 -17.462
ltibia 9.18372
lfoot -12.6683 3.6257
ltoes -29.2512
71
root 0.174719 17.9567 -3.42635 2.43734 0.576106 -1.4258
lowerback 3.08526 -1.52912 -2.46286
upperback -0.990881 -2.09851 1.7359
thorax -2.59567 -0.992801 3.27808
lowerneck -9.59042 -7.19487 -7.84319
upperneck 18.7383 -8.78793 1.13482
head 7.77217 -4.6452 0.791794
rclavicle 2.45716e-014 -1.65985e-014
rhumerus -28.5476 -23.3218 -78.4953
rradius 17.982
rwrist 12.8988
rhand -5.55361 -35.6606
rfingers 7.12502
rthumb 20.2614 -64.6238
lclavicle 2.45716e-014 -1.65985e-014
lhumerus -40.6724 27.2676 77.1263
lradius 34.1205
lwrist -5.62788
lhand -6.79435 -11.9125
lfingers 7.12502
lthumb 19.0686 17.1727
rfemur -1.57971 0.617725 19.9389
rtibia 14.9993
rfoot -13.91 -8.93201
rtoes 12.8607
lfemur 2.44537 1.71069 -17.5072
ltibia 9.1817
lfoot -12.6716 3.65123
ltoes -29.3819
72
root 0.175506 17.9561 -3.42079 2.42772 0.533254 -1.45263
lowerback 3.07305 -1.54254 -2.45352
upperback -0.988929 -2.11557 1.7461
thorax -2.58548 -1.00162 3.2837
lowerneck -9.48004 -7.29186 -8.02632
upperneck 18.5971 -8.93079 1.30139
head 7.72971 -4.71039 0.865289
rclavicle -7.10345e-015 -9.64106e-015
rhumerus -28.5947 -23.2673 -78.4337
rradius 17.962
rwrist 12.883
rhand -5.63466 -35.5947
rfingers 7.12502
rthumb 20.1835 -64.5662
lclavicle -7.10345e-015 -9.64106e-015
lhumerus -40.6347 27.2175 77.2168
lradius 34.1247
lwrist -5.42715
lhand -6.85363 -11.8752
lfingers 7.12502
lthumb 19.0116 17.2156
rfemur -1.57833 0.589877 19.9665
rtibia 15.047
rfoot -13.9676 -8.8939
rtoes 12.9464
lfemur 2.47446 1.74128 -17.4774
ltibia 9.20765
lfoot -12.7158 3.64568
ltoes -29.4045
73
root 0.176515 17.9551 -3.41644 2.4358 0.496382 -1.49284
lowerback 3.07173 -1.54799 -2.41683
upperback -0.996047 -2.12102 1.75731
thorax -2.59253 -1.00463 3.27502
lowerneck -9.35893 -7.35735 -8.18536
upperneck 18.4577 -9.03407 1.46166
head 7.68295 -4.75591 0.93764
rclavicle -8.18744e-015 3.97569e-016
rhumerus -28.6095 -23.2058 -78.373
rradius 17.9119
rwrist 12.7763
rhand -5.71227 -35.5923
rfingers 7.12502
rthumb 20.1089 -64.5717
lclavicle -8.18744e-015 3.97569e-016
lhumerus -40.5895 27.2643 77.2678
lradius 34.1061
lwrist -5.41201
lhand -6.77591 -11.933
lfingers 7.12502
lthumb 19.0863 17.1505
rfemur -1.58871 0.63504 20.0131
rtibia 15.0695
rfoot -13.9938 -8.88168
rtoes 13.1843
lfemur 2.48638 1.78071 -17.4269
ltibia 9.21773
lfoot -12.7643 3.61251
ltoes -29.0933
